<svg width="1134.000000" height="169.000000" viewBox="0 0 1134 169" fill="none" xmlns="http://www.w3.org/2000/svg" xmlns:xlink="http://www.w3.org/1999/xlink">
	<desc>
			Created with Pixso.
	</desc>
	<defs>
		<clipPath id="clip2_1">
			<rect id="画板 1" width="1134.000000" height="169.000000" fill="white"/>
		</clipPath>
	</defs>
	<rect id="画板 1" width="1134.000000" height="169.000000" fill="#002FA7"/>
	<g clip-path="url(#clip2_1)">
		<rect id="矩形 4" x="998.000000" y="-117.000000" width="61.000000" height="202.000000" fill="#8819C6" fill-opacity="0.9"/>
		<rect id="矩形 11" x="740.000000" y="-117.000000" width="61.000000" height="202.000000" fill="#8819C6" fill-opacity="0.9"/>
		<rect id="矩形 12" x="772.000000" y="-136.500000" width="61.000000" height="202.000000" fill="#8819C6" fill-opacity="0.9"/>
		<rect id="矩形 13" x="792.000000" y="-164.300812" width="61.000000" height="202.000000" transform="rotate(-0.656746 792.000000 -164.300812)" fill="#8819C6" fill-opacity="0.9"/>
		<rect id="矩形 10" x="134.000000" y="-100.000000" width="61.000000" height="202.000000" fill="#A161C5" fill-opacity="0.9"/>
		<rect id="矩形 1" x="-22.000000" y="25.000000" width="61.000000" height="202.000000" fill="#AB65D2"/>
		<rect id="矩形 19" x="9.000000" y="68.000000" width="61.000000" height="202.000000" fill="#AB65D2"/>
		<rect id="矩形 2" x="51.000000" y="68.000000" width="61.000000" height="202.000000" fill="#AB65D2" fill-opacity="0.9"/>
		<rect id="矩形 3" x="64.000000" y="47.000000" width="61.000000" height="202.000000" fill="#8819C6" fill-opacity="0.9"/>
		<rect id="矩形 6" x="217.000000" y="102.000000" width="195.000000" height="205.000000" fill="#8819C6" fill-opacity="0.9"/>
		<rect id="矩形 8" x="917.000000" y="37.000000" width="338.000000" height="205.000000" fill="#8819C6" fill-opacity="0.71"/>
		<rect id="矩形 20" x="891.000000" y="85.000000" width="338.000000" height="205.000000" fill="#8819C6" fill-opacity="0.71"/>
		<rect id="矩形 21" x="838.000000" y="116.000000" width="338.000000" height="205.000000" fill="#8819C6" fill-opacity="0.71"/>
		<rect id="矩形 22" x="686.000000" y="147.000000" width="338.000000" height="205.000000" fill="#8819C6" fill-opacity="0.71"/>
		<rect id="矩形 24" x="171.000000" y="-132.000000" width="61.000000" height="202.000000" fill="#A161C5" fill-opacity="0.9"/>
		<rect id="矩形 25" x="223.000000" y="-164.000000" width="61.000000" height="202.000000" fill="#A161C5" fill-opacity="0.9"/>
		<rect id="矩形 26" x="269.000000" y="-185.000000" width="61.000000" height="202.000000" fill="#A161C5" fill-opacity="0.9"/>
		<rect id="矩形 23" x="242.000000" y="66.000000" width="195.000000" height="205.000000" fill="#8819C6" fill-opacity="0.9"/>
	</g>
</svg>
