<svg width="795.685059" height="94.416664" viewBox="0 0 795.685 94.4167" fill="none" xmlns="http://www.w3.org/2000/svg" xmlns:xlink="http://www.w3.org/1999/xlink">
	<desc>
			Created with Pixso.
	</desc>
	<defs/>
	<path id="高天驰的个人博客" d="M678.754 1.47526C679.156 0.938803 679.492 0.4694 679.76 0.0670567Q682.576 -0.134115 685.795 0.268229C686.466 0.804688 687.136 1.47526 687.807 2.27995L687.807 3.48698L685.795 5.4987C685.258 5.36458 684.789 5.43164 684.387 5.69987C685.326 6.10221 686.466 6.50456 687.807 6.9069C688.477 7.57747 689.148 8.44922 689.818 9.52214C689.55 9.79037 689.416 10.4609 689.416 11.5339C688.477 11.8021 687.605 12.1374 686.801 12.5397C682.241 12.5397 677.882 12.7409 673.725 13.1432C673.322 13.2773 673.054 13.6126 672.92 14.1491C672.875 14.5067 672.853 14.857 672.853 15.1997Q672.853 16.2279 673.121 17.1667C676.474 17.3008 679.827 17.569 683.18 17.9714C684.387 18.5078 685.661 18.9772 687.002 19.3796Q688.812 20.7878 690.623 21.9948Q691.428 23.0007 692.434 24.2077Q693.641 27.2253 694.848 30.6452L694.848 43.5202C694.445 43.9225 694.244 44.459 694.244 45.1296C694.11 48.7507 693.976 52.2376 693.842 55.5905Q693.683 55.8687 693.54 56.1547L693.536 56.1617Q692.957 57.3205 692.635 58.6081L687.404 58.6081C687.002 57.6693 686.331 56.9987 685.393 56.5964Q684.99 53.1764 684.99 49.9577Q684.99 46.7389 685.393 43.7214C682.04 45.3307 678.486 46.7389 674.73 47.946Q675.133 53.1764 675.334 58.6081C675.602 58.8763 675.938 59.1445 676.34 59.4128C676.876 59.0104 677.547 58.6751 678.352 58.4069C679.156 58.8092 680.095 59.0104 681.168 59.0104C681.973 59.5469 682.844 60.0833 683.783 60.6198C684.32 61.2904 684.655 62.0951 684.789 63.0339C685.862 63.4362 687.069 63.5703 688.41 63.4362C691.897 62.3633 695.585 61.5586 699.475 61.0221C700.011 61.8268 700.883 62.2292 702.09 62.2292C702.09 63.0339 702.224 63.9056 702.492 64.8444Q701.788 65.3473 701.185 65.9507Q700.581 66.5543 700.078 67.2585C695.652 68.4655 691.227 69.4043 686.801 70.0749C686.935 71.9525 687.002 73.9642 687.002 76.11Q687.002 76.6052 687.231 76.9481Q687.373 77.1623 687.605 77.3171C687.203 80.2676 686.868 83.084 686.6 85.7663C685.929 86.4368 685.46 87.2415 685.191 88.1803L682.777 90.1921C680.229 90.8626 677.748 91.8014 675.334 93.0085C674.663 93.0085 674.127 92.8743 673.725 92.6061C671.713 93.1426 669.768 93.7461 667.891 94.4167L667.086 93.612C665.879 93.7461 664.94 93.612 664.27 93.2096C663.197 93.3438 662.057 93.5449 660.85 93.8131C660.447 93.5449 660.112 93.2767 659.844 93.0085Q659.027 92.8724 658.487 93.1966Q658.228 93.3516 658.033 93.612C657.43 93.4108 657.128 93.1342 657.128 92.7822C657.128 92.6648 657.161 92.5391 657.229 92.4049C655.351 92.2708 653.674 91.8685 652.199 91.1979C653.272 90.5273 654.613 90.2591 656.223 90.3932C656.223 90.125 656.156 89.8568 656.021 89.5885L657.832 89.5885Q662.016 88.6229 666.072 87.271L666.112 87.2576Q667.106 86.9259 668.092 86.571C669.567 85.7663 671.109 84.8945 672.719 83.9557C673.121 83.8216 673.523 83.8887 673.926 84.1569C674.194 83.8887 674.529 83.6204 674.932 83.3522Q675.334 81.5417 676.139 80.3346C676.139 76.9818 675.938 73.8301 675.535 70.8796C674.999 70.3431 674.462 70.0078 673.926 69.8737C669.366 69.7396 665.007 69.8737 660.85 70.276C660.291 70.276 660.011 70.4623 660.011 70.8349C660.011 70.9094 660.023 70.9913 660.045 71.0807Q660.385 71.2664 660.707 71.4807Q662.475 72.6593 663.666 74.7018L663.666 76.9147C663.264 77.4512 662.928 78.1217 662.66 78.9264C661.185 79.0605 659.844 79.5299 658.637 80.3346C657.296 80.0664 656.021 79.9323 654.814 79.9323C654.144 79.2617 653.473 78.9264 652.803 78.9264C652.4 77.7194 651.931 76.6465 651.395 75.7077Q650.864 75.7077 650.64 75.4457Q650.524 75.31 650.489 75.1042C650.48 75.0467 650.475 74.9906 650.475 74.9358C650.475 74.6074 650.647 74.3282 650.992 74.0983C650.573 73.8468 650.364 73.6085 650.364 73.3832C650.364 73.248 650.439 73.1176 650.59 72.9919C650.992 72.6566 651.462 72.3548 651.998 72.0866L651.395 71.4831C648.712 72.2878 645.963 72.8242 643.146 73.0924C641.269 72.0195 639.659 70.8796 638.318 69.6725C638.855 68.7337 639.324 67.929 639.727 67.2585C640.129 67.3926 640.665 67.359 641.336 67.1579C642.007 66.9567 642.677 66.6549 643.348 66.2526C645.896 65.8503 648.511 65.515 651.193 65.2467Q651.394 65.1463 651.545 64.9952Q651.696 64.8444 651.797 64.6432C656.491 64.2409 661.319 63.8385 666.281 63.4362C669.098 63.3021 671.847 63.4362 674.529 63.8385C674.831 63.235 674.982 62.6315 674.982 62.028C674.982 61.8268 674.965 61.6256 674.932 61.4245L673.926 60.4186C673.523 60.4186 673.188 60.6198 672.92 61.0221C672.383 60.6198 671.881 60.4521 671.411 60.5192C670.942 60.5863 670.506 60.6869 670.104 60.821L668.092 59.8151C666.751 56.7305 665.678 53.5788 664.873 50.36C661.386 50.6283 658.033 51.3659 654.814 52.5729C654.949 55.2552 655.217 57.9375 655.619 60.6198C655.083 61.0221 654.546 61.4915 654.01 62.028C652.534 61.7598 651.193 61.5586 649.986 61.4245C649.316 61.0221 648.947 60.6198 648.88 60.2174C648.813 59.8151 648.779 59.4128 648.779 59.0104Q647.572 57.401 646.969 55.9928L646.969 50.9635C646.701 50.5612 646.432 50.36 646.164 50.36C646.298 49.0189 646.768 47.946 647.572 47.1413C647.528 46.8283 647.505 46.5228 647.505 46.2248Q647.505 45.3309 647.773 44.526C646.969 44.1237 646.231 43.9225 645.561 43.9225C644.89 43.9225 644.421 44.1237 644.152 44.526L640.934 44.526C639.861 44.6602 638.922 44.9954 638.117 45.5319C638.117 53.0423 637.983 60.5527 637.715 68.0631C637.447 68.5996 637.111 69.1361 636.709 69.6725L636.709 71.2819C636.038 72.4889 635.502 73.8301 635.1 75.3053C634.697 75.1712 634.429 75.2383 634.295 75.5065L634.295 77.3171C633.893 77.5853 633.557 77.5853 633.289 77.3171L633.289 78.5241C632.484 78.5241 631.747 78.457 631.076 78.3229C630.406 78.1888 630.07 77.9206 630.07 77.5182C629.936 75.3724 629.802 73.2936 629.668 71.2819C629.266 71.0137 628.997 70.8125 628.863 70.6784Q627.455 58.4069 626.449 47.3424C622.426 48.013 618.335 48.5495 614.178 48.9518Q611.361 48.5495 608.746 47.7448C608.567 46.9401 608.478 46.1653 608.478 45.4202C608.478 45.0476 608.5 44.6825 608.545 44.3249C609.216 44.3249 609.886 44.2578 610.557 44.1237C610.512 43.9896 610.49 43.8629 610.49 43.7437C610.49 43.5053 610.579 43.2967 610.758 43.1178L614.58 43.1178C616.726 42.5814 618.939 42.0449 621.219 41.5085C621.755 41.5085 622.426 41.5755 623.23 41.7096C624.303 41.1732 625.443 40.7708 626.65 40.5026C626.919 38.0885 627.053 35.4733 627.053 32.6569C627.589 31.8522 627.924 30.9134 628.059 29.8405C628.729 29.4382 629.601 29.4382 630.674 29.8405Q630.875 29.7399 631.026 29.589Q631.177 29.4381 631.277 29.237C632.484 29.5052 633.758 29.8405 635.1 30.2428C636.038 31.0475 636.91 31.9863 637.715 33.0592C637.849 34.8027 637.983 36.6133 638.117 38.4909Q638.117 38.5712 638.141 38.6438Q638.238 38.9335 638.721 39.0944C640.732 38.8262 642.811 38.7591 644.957 38.8932C645.091 38.625 645.359 38.4238 645.762 38.2897Q645.601 37.8069 645.311 37.7103Q645.238 37.6862 645.158 37.6862C645.158 37.0156 645.225 36.4792 645.359 36.0768C646.432 35.138 647.505 34.1322 648.578 33.0592Q648.98 29.0358 649.182 24.61Q648.729 23.5539 648.729 22.4977C648.729 22.263 648.746 22.0283 648.779 21.7936C649.852 21.2572 650.992 20.7878 652.199 20.3854L654.211 20.3854C654.479 20.1172 654.68 19.849 654.814 19.5807C657.363 19.3125 659.911 18.8431 662.459 18.1725C662.459 16.8314 662.392 15.6914 662.258 14.7526C657.698 15.5573 653.205 16.1608 648.779 16.5632Q646.566 15.712 644.642 14.4288Q644.292 14.1955 643.951 13.9479Q643.851 13.3444 643.851 12.7409Q643.851 12.1374 643.951 11.5339C644.085 11.2656 644.689 11.0309 645.762 10.8298C646.835 10.6286 647.572 10.3939 647.975 10.1257C652.937 9.32096 657.899 8.44922 662.861 7.51042C662.861 6.16927 662.928 4.82812 663.062 3.48698Q663.163 3.3361 663.289 3.21037Q663.666 2.83317 664.27 2.68229C664.404 2.95052 664.739 3.08463 665.275 3.08463C665.678 2.27995 666.348 1.94466 667.287 2.07878C669.433 3.55404 671.579 5.09636 673.725 6.70573C676.943 6.4375 680.028 6.16927 682.979 5.90104C681.637 5.36458 680.363 4.82812 679.156 4.29167C678.62 3.48698 678.184 2.84994 677.849 2.38053Q677.597 2.02848 677.597 1.80216Q677.597 1.7207 677.63 1.65551Q677.688 1.53963 677.849 1.47526Q678.233 1.32146 678.559 1.40283L678.559 1.40287Q678.659 1.42793 678.754 1.47526ZM747.555 1.8776C747.689 2.01172 747.89 2.14583 748.158 2.27995C749.097 1.60938 750.036 1.00586 750.975 0.4694L757.01 4.0905C757.01 5.83398 756.742 7.51042 756.205 9.11979L755.199 10.1257C755.155 10.2151 755.132 10.3119 755.132 10.4162Q755.132 10.7292 755.4 11.1315L765.258 11.1315C768.611 11.8021 772.165 12.5397 775.92 13.3444C778.468 13.3444 780.949 13.1432 783.363 12.7409C784.57 13.2773 785.844 13.6797 787.186 13.9479Q787.789 14.9538 788.393 16.362L788.393 19.5807C788.124 19.849 787.923 20.1172 787.789 20.3854C787.521 25.8841 787.253 31.3158 786.984 36.6803C786.046 39.0944 785.509 41.7096 785.375 44.526C784.973 45.3307 784.503 46.0013 783.967 46.5378C782.76 46.6719 781.888 46.6719 781.352 46.5378C780.547 46.9401 780.01 47.4766 779.742 48.1471Q779.541 48.0466 779.39 47.8957Q779.239 47.7448 779.139 47.5436C778.87 47.8119 778.669 48.0801 778.535 48.3483C778.267 47.8119 777.932 47.5436 777.529 47.5436C777.127 45.3978 776.859 43.1178 776.725 40.7038Q776.725 32.0534 777.932 24.2077C777.965 23.9395 777.982 23.6796 777.982 23.4282Q777.982 22.2966 777.529 21.3913Q771.293 20.1842 765.459 18.9772Q750.773 18.776 735.887 18.9772C734.411 19.5137 733.07 20.3854 731.863 21.5924C731.729 24.0065 731.394 26.4206 730.857 28.8346C730.857 32.9922 730.723 37.2168 730.455 41.5085C730.723 43.9225 730.992 46.5378 731.26 49.3542C730.857 49.6224 730.589 50.0918 730.455 50.7624C728.98 51.2988 727.505 51.6341 726.029 51.7682C725.359 51.3659 724.688 51.0306 724.018 50.7624C723.615 49.4212 722.878 48.3483 721.805 47.5436Q721.402 42.2131 721.402 36.8825L721.402 36.8815Q721.402 31.5505 721.805 26.2194Q722.408 21.7936 723.615 17.9714C724.956 16.8984 726.499 15.7249 728.242 14.4508Q730.857 12.5397 734.277 11.5339C739.508 11.668 744.671 11.5339 749.768 11.1315C749.499 10.5951 749.164 10.3268 748.762 10.3268L746.951 10.3268C746.951 9.79037 746.817 9.38802 746.549 9.11979C746.012 9.25391 745.543 9.25391 745.141 9.11979Q745.212 8.88315 745.271 8.64372Q745.593 7.3566 745.593 5.98903C745.593 5.6286 745.576 5.26399 745.543 4.89518C745.945 3.68815 746.616 2.68229 747.555 1.8776ZM29.7986 2.40568Q29.9746 2.22965 30.1758 2.07878Q33.7969 1.47526 37.8203 1.27409Q39.6309 2.48112 41.6426 4.69401C41.6426 6.30339 41.5085 7.8457 41.2402 9.32096C40.5696 10.1257 39.832 10.9303 39.0273 11.735Q37.2168 12.1374 35.4062 12.3385Q32.9922 11.735 30.1758 10.3268Q29.9391 9.56948 29.747 8.80101Q29.1226 6.3034 28.9688 3.68815Q29.2705 2.93376 29.7986 2.40568ZM55.5234 14.5514C55.6575 14.2832 55.9258 14.082 56.3281 13.9479Q60.7539 13.9479 65.582 13.7467C66.1185 14.1491 66.7891 14.4844 67.5938 14.7526Q67.9961 15.7585 68.8008 16.7643C68.8343 17.0326 68.8511 17.3008 68.8511 17.569Q68.8511 18.7761 68.3984 19.9831Q67.6943 20.3854 66.9399 20.5363Q66.1855 20.6872 65.3809 20.5866C65.2468 20.9889 64.9785 21.3242 64.5762 21.5924Q52.9082 22.196 41.4414 23.2018Q40.8379 23.6042 40.2344 23.8053Q31.3828 23.6042 22.9336 24.4089C18.5078 25.3477 13.9479 26.2865 9.25391 27.2253C7.91278 26.957 6.57159 26.89 5.23047 27.0241L4.42578 27.8288Q3.41992 27.8288 2.61523 27.6276L2.61523 26.4206L1.81055 26.0182Q1.81055 25.0124 1.60938 24.4089C0.804688 24.0065 0.26825 23.5371 0 23.0007Q0.603516 21.1901 1.4082 19.5807Q2.13239 19.5807 2.71179 19.291Q3.09802 19.0979 3.41992 18.776Q3.54065 18.7358 3.66132 18.7358Q4.14417 18.7358 4.62695 19.3796C9.85742 18.4408 15.155 17.502 20.5195 16.5632Q32.791 16.362 44.2578 15.7585Q49.4883 14.5514 55.5234 14.5514ZM440.768 15.9596C442.109 15.8255 443.517 15.6914 444.992 15.5573C445.395 15.1549 445.931 14.8867 446.602 14.7526C447.272 15.2891 448.144 15.5573 449.217 15.5573Q460.684 26.2194 472.15 37.6862C477.113 41.1732 482.075 44.526 487.037 47.7448C487.015 47.8119 487.004 47.8808 487.004 47.9516C487.004 48.3055 487.283 48.7059 487.842 49.153L487.842 51.7682C487.037 52.0365 486.367 52.5729 485.83 53.3776L481.605 53.3776C480.801 52.707 479.929 52.4388 478.99 52.5729C475.637 50.1589 472.15 47.8119 468.529 45.5319C463.567 41.2402 458.873 36.8145 454.447 32.2546C453.777 33.1934 453.374 34.2663 453.24 35.4733C452.972 44.8613 452.503 54.2494 451.832 63.6374C451.798 64.8444 451.782 66.0431 451.782 67.2334Q451.782 72.5895 452.234 77.7194L450.625 79.3288C449.686 79.0605 448.814 79.0605 448.01 79.3288C446.803 78.7923 445.663 78.1888 444.59 77.5182C444.188 76.9818 443.986 76.4453 443.986 75.9089C443.182 75.3724 442.511 74.8359 441.975 74.2995C441.438 73.763 441.103 73.2266 440.969 72.6901C440.924 70.6784 440.902 68.6742 440.902 66.6775C440.902 62.6838 440.991 58.7199 441.17 54.7858Q442.176 42.3132 442.98 29.6393C443.651 28.5664 444.59 27.6947 445.797 27.0241C446.602 27.0241 447.339 26.7559 448.01 26.2194C447.607 25.0124 446.87 24.0736 445.797 23.403C445.395 23.2689 445.126 23.3359 444.992 23.6042Q439.561 31.4499 434.129 38.8932Q432.922 40.9049 432.318 43.319C431.38 44.2578 430.441 45.3978 429.502 46.7389C426.954 50.4941 424.607 54.3835 422.461 58.4069C422.193 59.4798 421.992 60.6198 421.857 61.8268C421.187 62.3633 420.65 63.1009 420.248 64.0397C418.505 64.3079 416.694 64.4421 414.816 64.4421C413.475 63.235 412.201 62.0951 410.994 61.0221L410.994 59.8151Q412.603 55.5926 414.613 51.571L414.615 51.5682L414.615 51.5671C423.064 39.4967 431.782 27.6276 440.768 15.9596ZM244.826 36.4792C246.167 29.1029 247.844 21.9277 249.855 14.9538C251.331 15.4902 253.208 15.8255 255.488 15.9596C256.829 16.8984 257.969 18.0384 258.908 19.3796L255.689 33.4616C256.226 33.8639 256.93 33.8975 257.802 33.5622C258.673 33.2269 259.78 32.9922 261.121 32.8581Q261.523 27.6276 262.328 22.7995C262.596 21.8607 262.932 21.056 263.334 20.3854C263.87 20.5195 264.541 20.5866 265.346 20.5866C266.821 21.5254 268.497 22.7324 270.375 24.2077Q270.476 26.32 270.476 28.382Q270.476 30.444 270.375 32.4557C272.789 32.8581 275.27 33.1934 277.818 33.4616C278.757 33.998 279.897 34.4004 281.238 34.6686C282.043 35.4733 282.915 36.4121 283.854 37.485Q284.256 40.5026 284.457 43.9225C283.921 46.4707 283.451 49.0859 283.049 51.7682Q281.037 53.5788 278.824 54.7858C278.522 54.5846 278.372 54.3457 278.372 54.0691C278.372 53.9769 278.388 53.8805 278.422 53.7799C277.751 53.6458 277.014 53.6458 276.209 53.7799C275.002 53.2435 274.13 52.5059 273.594 51.5671C272.923 51.9694 272.454 52.0365 272.186 51.7682Q272.051 50.0918 272.051 48.3706C272.051 46.0758 272.23 43.7213 272.588 41.3073Q271.984 39.6979 271.381 38.2897Q270.174 38.4909 269.269 38.5915Q268.753 38.6487 268.531 38.9341Q268.363 39.1501 268.363 39.4967C267.827 42.8496 267.357 46.2025 266.955 49.5553C266.265 49.9002 265.92 50.4421 265.92 51.1811C265.92 51.3043 265.93 51.4329 265.949 51.5671C265.413 51.9694 264.876 52.3047 264.34 52.5729C263.133 52.3047 262.127 52.1706 261.322 52.1706C260.92 51.2318 260.316 50.4941 259.512 49.9577C259.545 49.0524 259.562 48.1639 259.562 47.2921Q259.562 43.3693 259.109 39.8991C257.098 40.0332 255.421 40.5697 254.08 41.5085L254.08 44.7272C253.812 44.9954 253.611 45.2637 253.477 45.5319Q253.275 48.2477 253.275 50.9635Q253.275 53.6794 253.477 56.3952Q254.482 60.4186 255.891 64.4421C256.964 66.1855 258.305 67.7949 259.914 69.2702C261.255 69.5384 262.663 70.0749 264.139 70.8796L275.404 69.6725C276.745 68.7337 278.221 67.9961 279.83 67.4596C281.305 67.862 282.646 68.7337 283.854 70.0749C283.424 70.7186 283.21 71.4482 283.21 72.2636C283.21 72.4675 283.223 72.6767 283.25 72.8913C282.714 73.8301 282.043 74.6348 281.238 75.3053C279.629 75.9759 278.087 76.8477 276.611 77.9206C273.929 78.1888 271.381 78.6582 268.967 79.3288L265.346 79.3288C262.932 78.9264 260.752 78.3564 258.808 77.6188C256.863 76.8812 255.019 75.9759 253.275 74.903Q251.465 73.2936 250.258 71.8854Q247.643 67.4596 245.43 63.0339C245.296 62.3633 245.229 61.7598 245.229 61.2233C244.692 60.5527 244.223 60.3516 243.82 60.6198C243.954 61.9609 244.021 63.4362 244.021 65.0456C243.485 65.9844 242.949 66.9902 242.412 68.0631C240.534 69.9408 238.59 71.6172 236.578 73.0924Q232.957 74.5007 229.336 75.5065C229.604 74.97 229.738 74.5006 229.738 74.0983C228.02 73.73 226.469 73.5865 225.088 73.6677C225.394 73.6139 225.547 73.4837 225.547 73.2769C225.547 73.221 225.536 73.1595 225.514 73.0924C224.575 72.9583 223.77 73.0254 223.1 73.2936L222.496 72.6901C222.094 72.8242 221.624 72.9583 221.088 73.0924Q220.887 72.2878 220.484 71.8854Q218.875 72.0866 217.467 71.8854C218.137 71.349 218.875 70.8125 219.68 70.276L222.094 69.8737C224.105 68.5325 226.117 67.3926 228.129 66.4538C229.738 64.7103 231.482 62.8997 233.359 61.0221C233.359 60.0833 233.493 59.2786 233.762 58.6081C233.493 57.5352 233.158 56.6634 232.756 55.9928C230.342 55.8587 227.995 55.7917 225.715 55.7917C224.105 55.1211 222.496 54.5846 220.887 54.1823C219.009 52.707 217.199 51.2318 215.455 49.7565C214.919 48.5495 214.382 47.4095 213.846 46.3366C213.846 43.9225 213.98 41.542 214.248 39.195C214.516 36.848 215.12 34.6016 216.059 32.4557Q216.059 29.4381 216.662 26.6217Q216.501 26.1389 216.211 26.0424Q216.139 26.0182 216.059 26.0182C214.583 26.5547 213.142 26.9235 211.733 27.1247C210.325 27.3258 209.085 27.3594 208.012 27.2253C207.341 26.2865 206.671 25.5488 206 25.0124L205.195 25.4147C204.391 24.4759 203.921 23.4701 203.787 22.3971C203.251 22.6654 202.882 22.5648 202.681 22.0954C202.626 21.9674 202.598 21.8618 202.598 21.7787C202.598 21.557 202.793 21.4949 203.184 21.5924L203.988 22.3971Q204.29 21.6427 204.818 21.1147Q204.994 20.9386 205.195 20.7878L207.609 20.7878C208.28 20.3854 209.018 20.0501 209.822 19.7819C212.236 19.2454 214.717 18.9772 217.266 18.9772C218.07 18.5749 219.076 18.2396 220.283 17.9714C225.648 17.569 231.012 17.6361 236.377 18.1725Q236.586 18.251 236.794 18.3338L236.819 18.3438L236.819 18.3439Q239.79 19.5323 242.412 21.5924Q242.814 22.5983 243.619 23.8053Q243.418 29.237 242.412 33.8639C242.01 34.2663 241.674 34.8363 241.406 35.5739C241.317 35.8198 241.272 36.0545 241.272 36.278C241.272 36.725 241.451 37.1274 241.809 37.485C242.747 37.0827 243.753 36.7474 244.826 36.4792ZM122.312 18.3737C124.861 17.4349 127.476 16.6973 130.158 16.1608Q143.033 15.3561 156.311 15.9596C157.383 16.6302 158.456 17.4349 159.529 18.3737C159.529 19.1784 159.596 20.0501 159.73 20.9889C158.523 21.6595 157.585 22.4642 156.914 23.403L150.074 23.403C149.404 23.2689 148.867 23.0677 148.465 22.7995L140.016 22.7995C139.077 22.9336 138.205 23.1348 137.4 23.403C137.937 23.6712 138.607 23.9395 139.412 24.2077C139.379 24.3083 139.362 24.413 139.362 24.522C139.362 24.8489 139.513 25.2135 139.814 25.6159Q140.189 25.6159 140.505 25.7515Q141.209 26.0529 141.625 27.0241C141.598 27.2118 141.585 27.3996 141.585 27.5874Q141.585 28.7139 142.229 29.8405C141.692 32.791 140.954 35.7415 140.016 38.6921C139.971 38.9603 139.949 39.2211 139.949 39.4744C139.949 39.9811 140.038 40.4579 140.217 40.9049C143.301 40.6367 146.453 40.5697 149.672 40.7038C150.074 40.3014 150.544 40.1003 151.08 40.1003C154.433 39.9661 157.786 39.765 161.139 39.4967C161.809 38.9603 162.681 38.6921 163.754 38.6921C164.693 39.2285 165.9 39.4967 167.375 39.4967C167.509 40.1673 167.979 40.6367 168.783 40.9049C168.716 41.1732 168.683 41.4749 168.683 41.8102C168.683 42.1455 168.716 42.5143 168.783 42.9167C167.442 43.8555 166.034 44.7272 164.559 45.5319Q160.133 46.3366 156.713 47.946C157.518 48.3483 158.322 49.0189 159.127 49.9577C159.395 50.8965 159.663 51.9023 159.932 52.9753L159.932 69.069Q159.288 71.0003 159.288 73.3178Q159.288 73.8971 159.328 74.5006Q158.845 74.8225 158.588 75.2731Q158.294 75.7881 158.294 76.4713C158.294 76.6136 158.303 76.7614 158.322 76.9147C156.981 76.9147 155.506 77.5853 153.896 78.9264Q152.488 78.5241 151.482 78.9264L150.879 78.3229Q150.678 73.8971 150.275 69.8737L149.672 69.2702C149.404 64.1738 149.135 59.2786 148.867 54.5846C148.834 54.0817 148.817 53.5914 148.817 53.1136Q148.817 50.9635 149.27 49.153L150.074 48.3483L149.471 47.7448C145.984 47.7448 142.631 47.8789 139.412 48.1471C139.01 48.4154 138.742 48.8177 138.607 49.3542L138.607 51.7682C138.071 53.2435 137.602 54.7188 137.199 56.194L137.199 59.2116C136.663 61.0892 136.193 63.0339 135.791 65.0456C135.657 67.9961 135.523 71.0137 135.389 74.0983Q134.986 74.903 134.785 75.9089C133.98 76.3112 133.377 76.8477 132.975 77.5182C132.841 76.9818 132.572 76.6465 132.17 76.5124C131.902 76.7806 131.768 77.1829 131.768 77.7194C130.561 76.6465 129.286 75.3724 127.945 73.8971Q127.945 71.6842 127.342 69.6725C127.297 68.689 127.275 67.7353 127.275 66.8114Q127.275 64.0397 127.543 61.6257C128.079 57.7363 128.817 53.847 129.756 49.9577C129.085 49.4212 128.348 49.2871 127.543 49.5553C125.397 49.9577 123.318 50.4941 121.307 51.1647L116.68 51.1647C114.936 50.36 113.394 49.4883 112.053 48.5495Q112.505 47.7951 112.505 47.267C112.505 47.1497 112.489 47.0407 112.455 46.9401C114.333 45.4648 116.411 44.3249 118.691 43.5202C122.849 42.8496 127.007 42.2461 131.164 41.7096Q131.365 40.905 131.768 40.5026L131.768 36.6803C132.706 33.7298 133.377 30.7793 133.779 27.8288C134.048 26.7559 134.517 25.8841 135.188 25.2135L135.59 25.6159C135.858 24.6771 136.395 24.0065 137.199 23.6042C137.199 23.2018 136.931 22.9336 136.395 22.7995Q132.371 23.6042 127.945 24.0065C126.068 23.8724 124.257 23.7383 122.514 23.6042Q122.212 23.8456 121.874 24.0146Q121.085 24.4089 120.1 24.4089C119.429 23.8724 118.758 23.403 118.088 23.0007Q118.691 21.3913 119.295 20.1842Q120.703 19.1784 122.312 18.3737ZM355.27 19.279C355.94 18.9437 356.745 18.5078 357.684 17.9714C358.891 17.7031 360.165 17.6361 361.506 17.7702C362.445 18.709 363.316 19.7148 364.121 20.7878Q363.92 21.3913 363.92 21.9948Q363.92 22.5983 364.121 23.2018C363.451 24.1406 362.579 24.8783 361.506 25.4147Q359.293 28.6335 357.281 32.2546C357.952 32.9251 358.891 33.3945 360.098 33.6628C361.305 33.931 362.579 34.1322 363.92 34.2663C366.87 35.071 369.821 36.0768 372.771 37.2839C373.844 38.0885 374.85 39.0273 375.789 40.1003C376.728 41.1732 377.801 42.3802 379.008 43.7214C379.947 45.8672 380.885 48.0801 381.824 50.36C381.858 50.7959 381.875 51.236 381.875 51.6802C381.875 53.013 381.724 54.3835 381.422 55.7917Q379.611 59.8151 377.197 63.6374L371.967 69.2702C369.687 71.416 367.273 73.2936 364.725 74.903L364.322 74.5006C363.249 74.903 362.243 75.2383 361.305 75.5065L356.074 75.5065Q355.471 74.903 354.867 74.903L355.27 73.696L354.666 73.0924L352.252 73.0924C352.207 73.0477 352.185 72.9881 352.185 72.9136C352.185 72.7646 352.274 72.556 352.453 72.2878C351.648 71.7513 350.844 71.416 350.039 71.2819C349.994 71.1478 349.972 71.0211 349.972 70.9019C349.972 70.6635 350.061 70.4549 350.24 70.276C349.301 69.6055 348.497 69.069 347.826 68.6667C347.826 68.3984 348.094 68.2643 348.631 68.2643C349.167 68.2643 349.704 68.3649 350.24 68.5661Q350.73 68.7496 351.07 68.5982Q351.29 68.5007 351.447 68.2643L354.666 68.2643C356.678 67.0573 358.757 65.9173 360.902 64.8444C361.841 63.6374 362.981 62.6315 364.322 61.8268Q366.133 59.0104 368.547 56.3952L371.363 51.1647C371.497 50.0918 371.564 49.0189 371.564 47.946C371.028 46.873 370.559 45.8672 370.156 44.9284C369.083 44.2578 367.943 43.5872 366.736 42.9167C363.92 42.2461 361.271 41.6091 358.79 41.0055C356.309 40.402 354.13 39.4297 352.252 38.0885C351.045 35.9427 349.972 33.7969 349.033 31.651C348.899 30.0417 348.832 28.4993 348.832 27.0241Q349.436 27.0241 350.039 26.6217Q350.758 25.6159 350.758 24.7127Q350.758 24.5537 350.735 24.3979Q350.707 24.1996 350.643 24.0065C351.85 22.9336 353.124 21.8607 354.465 20.7878C354.442 20.676 354.431 20.5689 354.431 20.4664C354.431 19.9542 354.711 19.5584 355.27 19.279ZM541.354 32.2546Q545.578 26.0182 549.803 20.1842C550.742 20.0501 551.882 19.9831 553.223 19.9831C553.893 20.6536 554.832 21.056 556.039 21.1901C556.441 22.1289 556.71 23.2018 556.844 24.4089C556.888 24.8112 556.911 25.2061 556.911 25.5936Q556.911 26.7559 556.643 27.8288C554.363 31.3158 552.016 34.8027 549.602 38.2897Q549.544 38.4621 549.544 38.5935C549.544 38.8125 549.664 38.9459 549.903 38.9938C550.239 39.0609 550.54 39.0944 550.809 39.0944C552.418 40.972 554.296 42.7826 556.441 44.526C558.453 47.2083 560.599 49.9242 562.879 52.6735Q566.299 56.7975 570.121 60.6198C573.474 62.7656 576.827 65.0456 580.18 67.4596C580.984 68.2643 581.454 69.3372 581.588 70.6784Q580.783 71.6842 580.381 73.0924C579.442 73.0924 578.704 73.4948 578.168 74.2995C576.29 74.0312 574.413 73.9642 572.535 74.0983C570.792 72.7572 569.048 71.5501 567.305 70.4772C564.622 68.0631 562.074 65.7161 559.66 63.4362Q552.82 54.7858 545.779 46.3366C545.377 46.3366 545.109 46.4707 544.975 46.7389Q540.348 55.3893 535.318 63.8385C534.111 66.6549 532.837 69.5384 531.496 72.4889C530.423 72.8913 529.484 73.4277 528.68 74.0983C527.473 74.0983 526.467 73.8301 525.662 73.2936C525.796 72.7572 525.863 72.2878 525.863 71.8854C525.059 71.2148 524.254 70.6784 523.449 70.276C523.986 68.2643 524.254 66.2526 524.254 64.2409Q525.461 62.028 526.668 60.0163L526.668 58.6081C527.204 57.401 528.076 56.3281 529.283 55.3893L529.283 53.5788C531.831 49.153 534.312 44.6602 536.727 40.1003C536.995 39.832 537.33 39.5638 537.732 39.2956C538.269 38.2227 538.671 37.1497 538.939 36.0768C539.61 35.4062 540.281 34.6686 540.951 33.8639C540.951 33.1934 541.085 32.6569 541.354 32.2546ZM327.508 23.2018Q332.135 21.5924 337.164 20.3854C338.908 20.2513 340.651 20.2513 342.395 20.3854C342.931 20.7878 343.467 21.3913 344.004 22.196C344.138 22.0618 344.406 21.9948 344.809 21.9948C345.166 22.7101 345.345 23.5147 345.345 24.4088C345.345 24.8559 345.3 25.3253 345.211 25.8171C344.674 26.0853 344.339 26.4876 344.205 27.0241L328.111 31.0475Q323.082 31.0475 318.455 31.4499C317.114 31.1816 315.84 30.8464 314.633 30.444C314.23 30.7122 313.962 31.0475 313.828 31.4499C313.292 31.1816 313.023 30.8464 313.023 30.444C312.621 30.8464 312.152 31.0475 311.615 31.0475Q311.414 29.8405 311.012 28.8346L314.834 25.0124C315.773 24.7441 316.645 24.3418 317.449 23.8053C320.802 23.6712 324.155 23.4701 327.508 23.2018ZM681.771 24.0065C680.162 23.6042 678.62 23.2689 677.145 23.0007C675.535 22.7324 674.127 22.8665 672.92 23.403Q672.518 24.8112 672.518 26.1188Q672.518 27.1187 672.753 28.0599Q672.825 28.3495 672.92 28.6335C676.273 28.2311 679.894 28.097 683.783 28.2311Q683.984 28.1305 684.135 27.9796Q684.286 27.8288 684.387 27.6276Q683.783 26.2194 683.18 25.3141C682.777 24.7106 682.308 24.2747 681.771 24.0065ZM740.715 24.61C741.117 24.0736 741.587 23.6712 742.123 23.403Q743.732 23.403 745.744 23.6042C745.699 23.8724 745.677 24.1407 745.677 24.4089C745.677 24.9453 745.766 25.4818 745.945 26.0182C746.214 25.8841 746.482 25.8171 746.75 25.8171Q746.83 26.2996 747.04 26.7183Q747.354 27.346 747.957 27.8288C749.164 27.6947 750.371 27.4264 751.578 27.0241C755.199 27.0241 758.887 26.957 762.643 26.8229C763.447 27.3594 764.386 27.8958 765.459 28.4323Q766.867 28.4323 768.477 29.0358C769.147 29.5723 769.684 30.3099 770.086 31.2487C770.041 31.5169 770.019 31.7926 770.019 32.0758Q770.019 32.9252 770.287 33.8639C767.739 38.5579 764.99 43.1849 762.039 47.7448C763.246 48.2812 764.621 48.7507 766.163 49.153C767.705 49.5553 769.348 49.8906 771.092 50.1589Q782.559 54.3835 794.025 58.8092C794.562 59.4798 795.098 60.2174 795.635 61.0221C795.668 61.2233 795.685 61.4203 795.685 61.6131C795.685 62.1914 795.534 62.7321 795.232 63.235C794.428 63.7715 793.556 64.4421 792.617 65.2467L789.801 65.2467L766.867 56.7975Q762.24 55.7917 757.814 54.987C755.669 57.9375 753.523 60.7539 751.377 63.4362C751.35 63.5167 751.337 63.5944 751.337 63.6695C751.337 63.97 751.551 64.2275 751.98 64.4421C753.59 63.235 755.132 62.028 756.607 60.821C757.546 61.2233 758.284 62.0951 758.82 63.4362C759.357 63.4362 759.826 63.235 760.229 62.8327L763.85 62.8327C763.984 62.5645 764.185 62.2962 764.453 62.028C766.197 61.8939 767.873 62.028 769.482 62.4303C771.628 63.7715 773.774 65.2467 775.92 66.8561C776.054 67.3926 776.322 67.929 776.725 68.4655C776.725 69.4043 776.658 70.4772 776.523 71.6842L772.098 82.1452C770.488 83.7546 769.281 85.6322 768.477 87.778C766.331 89.5215 764.185 91.1979 762.039 92.8073Q761.536 92.8073 761.083 92.9582Q760.631 93.109 760.229 93.4108C757.814 93.5449 755.602 93.4108 753.59 93.0085C752.115 91.8014 750.706 90.6615 749.365 89.5885C747.488 86.7721 746.012 83.9557 744.939 81.1393C744.872 80.5358 744.839 79.9491 744.839 79.3791C744.839 78.8091 744.872 78.2559 744.939 77.7194Q746.75 73.696 747.957 70.0749C747.421 70.0749 747.018 70.209 746.75 70.4772C744.738 74.2324 742.458 77.9206 739.91 81.5417C738.971 81.5417 738.1 81.7428 737.295 82.1452C736.758 81.877 736.423 81.5752 736.289 81.2399C736.222 81.0723 736.188 80.9298 736.188 80.8124C736.188 80.6951 736.222 80.6029 736.289 80.5358C735.753 80.2676 735.35 79.9323 735.082 79.5299L731.662 79.5299C731.662 78.457 731.327 77.6523 730.656 77.1159C735.484 70.0078 740.178 62.8997 744.738 55.7917C745.275 55.3893 745.811 55.054 746.348 54.7858C746.482 53.7129 746.951 52.64 747.756 51.5671C747.085 50.7624 746.348 50.4271 745.543 50.5612C744.872 49.8906 744.403 49.2201 744.135 48.5495C743.732 48.4154 743.397 48.4824 743.129 48.7507C742.727 51.1647 742.257 53.5788 741.721 55.9928C741.05 57.0658 740.312 58.0716 739.508 59.0104C738.033 58.7422 736.893 58.2728 736.088 57.6022L734.076 57.6022C733.942 56.9316 733.808 56.3281 733.674 55.7917Q733.674 51.5671 734.277 47.5436Q736.49 39.4967 737.898 31.0475C738.703 29.304 739.642 27.6947 740.715 26.2194L740.715 24.61ZM231.951 24.2077L224.709 24.2077C223.502 24.61 222.295 24.9453 221.088 25.2135C221.49 25.8841 222.161 26.1523 223.1 26.0182C224.173 26.957 225.044 28.1641 225.715 29.6393Q225.514 32.8581 225.111 36.0768Q224.105 39.4967 223.301 43.1178L223.301 46.7389C223.971 47.6777 224.977 48.3483 226.318 48.7507C227.659 49.153 229.202 49.4883 230.945 49.7565C231.318 49.533 231.504 49.2888 231.504 49.0238C231.504 48.8119 231.385 48.5867 231.146 48.3483C230.074 48.4824 229.135 48.5495 228.33 48.5495L228.33 44.1237C228.598 42.9167 228.934 41.7767 229.336 40.7038C229.157 40.3461 229.068 39.9885 229.068 39.6309Q229.068 39.3626 229.135 39.0944Q229.738 36.8815 230.945 35.071C230.945 33.998 231.012 33.1263 231.146 32.4557C231.281 31.7852 231.616 31.2487 232.152 30.8464C232.286 28.8346 232.555 26.957 232.957 25.2135L231.951 24.2077ZM662.006 25.993C662.006 25.5404 662.023 25.0794 662.057 24.61C659.911 24.4759 657.765 24.7441 655.619 25.4147C655.485 27.5605 655.351 29.6393 655.217 31.651Q659.24 31.2487 662.459 29.8405Q662.006 28.0299 662.006 25.993ZM43.4531 26.2194L43.0508 25.8171C43.8555 25.2806 44.7943 25.1465 45.8672 25.4147C46.1354 25.5488 46.4707 25.8171 46.873 26.2194Q49.0859 26.2194 51.0977 26.8229C52.3047 27.8958 53.4446 29.0358 54.5176 30.2428C54.5399 30.4887 54.5511 30.7327 54.5511 30.9749C54.5511 32.1856 54.2717 33.3498 53.7129 34.4674L53.1094 34.4674Q50.0918 37.485 47.4766 41.3073C47.4766 41.9779 47.2754 42.6484 46.873 43.319C45.8001 43.7214 45.0625 44.459 44.6602 45.5319Q40.0332 48.5495 36.0098 51.1647C36.1439 51.2988 36.4121 51.5 36.8145 51.7682C46.739 51.6341 56.7975 51.2988 66.9902 50.7624C67.2585 50.8965 67.5267 51.0977 67.7949 51.3659L70.6113 51.3659C71.2819 52.1706 72.0195 53.1764 72.8242 54.3835C73.4948 56.3952 74.1653 58.541 74.8359 60.821L74.8359 69.8737C73.8972 71.7513 73.4277 73.8971 73.4277 76.3112Q71.2148 81.944 69.2031 87.9792L68.8008 90.7956L65.9844 92.4049Q63.3691 92.4049 61.3574 93.0085C60.821 92.0697 60.3516 91.1979 59.9492 90.3932C58.8763 90.3932 58.1722 90.0244 57.8369 89.2868C57.5016 88.5491 57.334 87.845 57.334 87.1745C57.6022 86.9062 57.8704 86.7051 58.1387 86.571L58.1387 84.5592Q60.3516 79.5299 62.3633 74.2995C62.3633 72.2878 62.8327 70.4772 63.7715 68.8678Q63.3188 65.5485 63.3188 62.116C63.3188 61.3532 63.3356 60.5863 63.3691 59.8151Q62.9668 58.6081 62.1621 58.0046Q48.4824 58.6081 34.8027 58.6081Q25.75 60.4186 17.3008 63.235C17.2561 63.7268 17.2337 64.2185 17.2337 64.7103C17.2337 65.6938 17.3231 66.6773 17.502 67.6608C18.0384 69.8066 18.5749 72.1536 19.1113 74.7018Q19.1113 80.737 19.3125 86.7721C18.2396 87.9792 17.0996 89.1191 15.8926 90.1921C15.4902 89.7897 15.0208 89.555 14.4844 89.488Q13.9017 89.4151 13.4244 89.606Q13.2427 89.6787 13.0762 89.7897Q12.0703 89.5885 11.8691 89.1862C11.1985 87.9792 10.4609 86.8392 9.65625 85.7663Q9.45508 78.9264 8.85156 72.4889Q7.64453 67.4596 7.24219 62.028Q7.44336 61.4245 7.8457 60.821C9.05273 59.748 10.3268 58.8092 11.668 58.0046C11.5339 57.4681 11.3997 57.0658 11.2656 56.7975C12.7409 56.3952 14.1491 55.9258 15.4902 55.3893L19.5137 54.987C21.7936 54.0482 24.1406 53.3105 26.5547 52.7741L28.9688 52.7741Q29.6125 52.2913 29.6125 51.8085Q29.6125 51.6878 29.5723 51.5671Q28.9688 51.4665 28.3652 51.4665Q27.7617 51.4665 27.1582 51.5671L25.1465 50.36C23.9395 48.8848 22.8665 47.4095 21.9277 45.9342C21.5254 45.9342 21.1901 45.8672 20.9219 45.7331L20.9219 40.3014C21.3242 39.2285 21.7601 38.1556 22.2295 37.0827C22.6989 36.0098 23.3359 35.071 24.1406 34.2663Q23.9395 33.4616 23.5371 33.0592Q26.5547 31.4499 29.7734 30.0417Q31.584 29.8405 33.5957 29.8405L34.6016 28.8346C35.5403 28.8346 36.4121 28.7676 37.2168 28.6335L37.2168 27.2253L42.0449 27.2253C42.5814 26.957 43.0508 26.6217 43.4531 26.2194ZM313.751 48.9672Q316.121 40.6734 319.461 32.6569C321.473 32.5228 323.417 32.4557 325.295 32.4557C325.697 32.724 326.167 33.1934 326.703 33.8639C328.447 32.9251 330.458 32.3887 332.738 32.2546C333.543 32.3887 334.415 32.5228 335.354 32.6569C336.024 33.3275 336.829 33.7969 337.768 34.0651C340.316 39.2956 343.065 44.6602 346.016 50.1589C345.882 50.9635 345.814 51.8353 345.814 52.7741C344.742 53.9811 344.004 55.3893 343.602 56.9987C340.249 61.1562 336.896 65.3809 333.543 69.6725Q330.727 72.0866 328.111 74.5006C327.038 74.903 326.033 75.3724 325.094 75.9089C323.216 76.043 321.473 76.2441 319.863 76.5124C318.924 76.2441 318.053 76.043 317.248 75.9089L316.242 74.903L315.035 74.903C314.23 73.9642 313.56 73.0254 313.023 72.0866C312.085 69.2702 311.414 66.3867 311.012 63.4362Q311.313 62.4303 311.313 61.4748Q311.313 60.9841 311.234 60.5066Q311.159 60.0543 311.012 59.6139C311.414 58.541 311.682 57.6022 311.816 56.7975C311.839 56.6634 311.85 56.5386 311.85 56.4231C311.85 55.8457 311.571 55.5011 311.012 55.3893C310.878 54.4505 310.811 53.7129 310.811 53.1764C311.481 53.3105 312.152 53.0423 312.822 52.3717Q313.263 50.6781 313.743 48.9959L313.751 48.9672ZM685.845 35.511C685.845 34.7818 685.694 34.1657 685.393 33.6628Q678.754 33.4616 672.719 34.8698C672.853 36.3451 672.92 37.8874 672.92 39.4967C673.188 40.0332 673.523 40.6367 673.926 41.3073C675.267 40.9049 676.742 40.5697 678.352 40.3014C680.497 39.2285 682.71 38.2897 684.99 37.485C685.124 36.9486 685.393 36.5462 685.795 36.278C685.828 36.0098 685.845 35.7541 685.845 35.511ZM41.0391 38.0885Q42.0449 36.0768 44.0566 34.4674C40.7038 33.931 37.2839 33.8639 33.7969 34.2663C33.5555 34.6686 33.4348 35.1192 33.4348 35.6182C33.4348 35.9508 33.4884 36.3048 33.5957 36.6803Q31.4293 39.1562 29.62 41.8701L29.6199 41.8703L29.6184 41.8725Q29.0764 42.6857 28.5664 43.5202C28.5329 43.6543 28.5161 43.7842 28.5161 43.91Q28.5161 44.0764 28.5553 44.233Q28.6492 44.6089 28.9688 44.9284C29.9075 44.7943 30.9134 44.6602 31.9863 44.526Q36.6133 41.5085 41.0391 38.0885ZM752.986 42.7155C754.462 39.765 755.803 36.9486 757.01 34.2663C753.523 34.8027 750.036 35.2721 746.549 35.6745C746.146 35.9427 745.878 36.278 745.744 36.6803Q745.141 39.8991 744.537 43.319C744.939 43.7214 745.476 44.0566 746.146 44.3249C746.683 44.0566 747.488 44.0902 748.561 44.4255C749.633 44.7607 750.505 44.9284 751.176 44.9284C751.712 44.1237 752.316 43.3861 752.986 42.7155ZM332.135 37.0827C332.403 36.4121 332.537 35.7415 332.537 35.071Q332.064 34.5976 331.73 34.6812Q331.496 34.7396 331.33 35.071C331.196 35.3392 331.129 35.6074 331.129 35.8757C331.129 36.1439 331.196 36.4121 331.33 36.6803C331.464 36.6803 331.732 36.8145 332.135 37.0827ZM329.922 35.6745C329.385 35.4062 328.916 35.2721 328.514 35.2721C328.207 35.4254 328.054 35.6006 328.054 35.7976C328.054 35.9454 328.14 36.1056 328.312 36.278C329.251 36.4121 329.788 36.2109 329.922 35.6745ZM330.928 37.2839C330.525 36.8815 330.056 36.6803 329.52 36.6803C329.162 36.8592 328.983 37.038 328.983 37.2168C328.983 37.3062 329.028 37.3956 329.117 37.485C329.385 37.7533 329.721 37.8538 330.123 37.7868C330.525 37.7197 330.794 37.5521 330.928 37.2839ZM663.666 43.319C663.264 41.1732 662.995 39.0273 662.861 36.8815C661.386 36.8815 660.045 37.0156 658.838 37.2839C657.229 37.6862 655.686 38.2227 654.211 38.8932L654.211 43.9225C654.345 44.459 654.68 44.9284 655.217 45.3307C658.167 44.9284 660.984 44.2578 663.666 43.319ZM241.205 40.9049C240.937 40.5026 240.736 40.2344 240.602 40.1003C240.065 39.9661 239.73 40.1003 239.596 40.5026Q238.791 44.1237 237.785 47.946C236.98 47.8119 236.41 48.0801 236.075 48.7507C235.963 48.9742 235.908 49.1828 235.908 49.3765Q235.908 49.5019 235.939 49.619Q236.052 50.0445 236.578 50.36L238.389 50.36C239.596 50.8965 240.534 51.7012 241.205 52.7741L239.998 52.7741C239.569 52.9887 239.354 53.2462 239.354 53.5466C239.354 53.6217 239.368 53.6995 239.395 53.7799C240.333 53.7799 241.138 53.5117 241.809 52.9753C242.077 53.2435 242.345 53.5788 242.613 53.9811L241.809 55.5905C242.211 55.7246 242.479 55.9593 242.613 56.2946C242.747 56.6299 242.882 56.5964 243.016 56.194C243.194 53.8694 243.284 51.4553 243.284 48.9519C243.284 47.7001 243.262 46.426 243.217 45.1296Q243.619 43.7214 243.82 42.112C243.552 41.4414 243.15 41.0055 242.613 40.8044C242.077 40.6032 241.607 40.6367 241.205 40.9049ZM329.959 40.5244Q329.679 40.4124 329.318 40.5026L325.295 42.9167Q324.289 45.9342 324.088 48.9518C325.295 48.8177 326.77 48.7507 328.514 48.7507C329.318 48.0801 330.19 47.4766 331.129 46.9401C330.727 45.3307 330.257 43.8555 329.721 42.5143C329.721 41.8438 329.989 41.3744 330.525 41.1061Q330.303 40.6622 329.959 40.5244ZM331.732 43.319C331.464 42.9167 331.196 42.6484 330.928 42.5143C330.928 43.7214 330.995 44.9284 331.129 46.1354C331.531 46.4036 331.934 46.4707 332.336 46.3366Q332.819 46.1757 332.915 45.886Q332.939 45.8135 332.939 45.7331C332.269 45.1966 331.799 44.7272 331.531 44.3249C332.09 43.8778 332.369 43.4308 332.369 42.9837C332.369 42.8943 332.358 42.8049 332.336 42.7155Q332.034 42.7155 331.883 42.8664Q331.732 43.0173 331.732 43.319ZM245.229 45.3307C245.094 44.2578 244.826 43.4531 244.424 42.9167C244.271 43.1466 244.194 43.3984 244.194 43.6721C244.194 43.8774 244.237 44.095 244.323 44.3249C244.524 44.8613 244.826 45.1966 245.229 45.3307ZM351.85 47.5436L351.85 46.5378C352.654 45.7331 353.459 45.0625 354.264 44.526C355.337 44.6602 356.41 44.8613 357.482 45.1296Q358.488 45.9342 359.896 46.9401Q360.299 48.3483 361.104 49.9577Q361.204 51.3659 361.204 52.8244Q361.204 54.2829 361.104 55.7917C360.567 56.194 360.232 56.6634 360.098 57.1999C359.159 57.6022 358.22 57.9375 357.281 58.2057Q355.27 57.6022 353.66 56.9987Q351.648 53.9811 350.039 50.9635C350.039 50.0247 349.905 49.2201 349.637 48.5495C350.307 48.013 351.045 47.6777 351.85 47.5436ZM332.939 56.5964C332.939 56.0599 332.805 55.6576 332.537 55.3893C331.062 55.9258 329.654 56.6634 328.312 57.6022C327.91 57.4681 327.541 57.401 327.206 57.401C326.871 57.401 326.636 57.6022 326.502 58.0046C324.758 58.4069 323.082 58.6751 321.473 58.8092C320.936 60.2845 320.4 61.6257 319.863 62.8327L319.863 67.2585C319.997 67.6608 320.266 67.9961 320.668 68.2643C322.277 67.1914 323.753 66.1185 325.094 65.0456Q328.312 61.2233 331.732 57.1999Q332.336 56.7975 332.939 56.5964ZM206.563 60.4508C206.563 60.7512 206.778 61.0087 207.207 61.2233C209.889 60.2845 212.706 59.5469 215.656 59.0104C219.948 58.7422 224.105 58.8763 228.129 59.4128C228.117 59.4615 228.111 59.5103 228.111 59.5591C228.111 60.0468 228.72 60.5344 229.939 61.0221C229.403 61.5586 229.068 62.2962 228.934 63.235C227.995 63.9056 227.123 64.5762 226.318 65.2467C222.831 66.1855 219.344 66.8561 215.857 67.2585C213.846 67.2585 211.901 67.1243 210.023 66.8561L209.219 65.6491C208.548 65.515 207.945 65.4479 207.408 65.4479C206.335 64.2409 205.531 63.0339 204.994 61.8268C205.396 61.1562 205.933 60.6198 206.604 60.2174C206.577 60.2979 206.563 60.3757 206.563 60.4508ZM38.0215 63.4865C38.0215 63.2518 38.0886 63.0339 38.2227 62.8327Q38.6557 62.7708 39.084 62.6852L39.0845 62.6851Q41.4414 62.2137 43.6543 61.0221Q47.1826 60.8364 50.5394 61.5078Q50.8192 61.5638 51.0977 61.6257C51.9023 62.1621 52.64 62.8662 53.3105 63.738C53.9811 64.6097 54.3164 65.7832 54.3164 67.2585C53.5117 68.8678 52.9082 70.5443 52.5059 72.2878C51.0306 74.0312 49.8906 75.9759 49.0859 78.1217L46.2695 80.9381Q43.8555 81.7428 41.6426 82.7487L39.2285 82.7487C38.8262 83.151 38.3568 83.4193 37.8203 83.5534C36.2109 82.8828 34.6686 82.4134 33.1934 82.1452C31.1816 80.9381 29.3711 79.6641 27.7617 78.3229C27.4935 77.5182 27.2253 76.8477 26.957 76.3112C26.8229 74.1654 26.6888 72.1536 26.5547 70.276Q27.3594 68.8678 28.0635 67.2585C28.5329 66.1855 29.304 65.0456 30.377 63.8385C31.7181 63.168 33.2604 62.8327 35.0039 62.8327C35.9427 62.8327 36.6133 63.3021 37.0156 64.2409Q37.3174 64.3415 37.6191 64.3415Q37.9209 64.3415 38.2227 64.2409C38.0886 63.9727 38.0215 63.7212 38.0215 63.4865ZM761.134 68.5284C761.134 67.8494 760.832 67.359 760.229 67.0573C757.68 71.6172 755.4 76.3112 753.389 81.1393C753.389 81.6758 753.556 82.2793 753.892 82.9499C754.227 83.6204 754.864 84.3581 755.803 85.1628L757.412 85.1628C759.558 83.5534 761.503 81.8099 763.246 79.9323C764.587 77.6523 765.995 75.3724 767.471 73.0924C767.471 72.1536 767.605 71.349 767.873 70.6784C765.727 69.7396 763.447 69.2702 761.033 69.2702C761.1 69.0019 761.134 68.7547 761.134 68.5284ZM43.6543 70.0749C43.6543 69.9408 43.5872 69.8066 43.4531 69.6725C41.1732 69.8066 38.9603 69.9408 36.8145 70.0749L35.6074 71.2819C35.2051 72.2207 34.9368 73.2266 34.8027 74.2995C35.4733 74.97 36.4121 75.4395 37.6191 75.7077C39.6309 74.2324 41.5755 72.4889 43.4531 70.4772C43.5872 70.3431 43.6543 70.209 43.6543 70.0749ZM225.088 73.6677C224.98 73.6865 224.854 73.696 224.709 73.696C224.834 73.6846 224.96 73.6752 225.088 73.6677Z" fill-rule="evenodd" fill="#FFFFFF"/>
</svg>
